<svg width="122" height="123" viewBox="0 0 122 123" fill="none" xmlns="http://www.w3.org/2000/svg">
<circle cx="59.1248" cy="50.7" r="47.8602" fill="#EAEEF9"/>
<path d="M112.935 30.95C115.2 30.95 117.035 29.1144 117.035 26.85C117.035 24.5856 115.2 22.75 112.935 22.75C110.671 22.75 108.835 24.5856 108.835 26.85C108.835 29.1144 110.671 30.95 112.935 30.95Z" fill="#EAEEF9"/>
<path d="M118.935 14.9496C120.482 14.9496 121.735 13.696 121.735 12.1496C121.735 10.6032 120.482 9.34961 118.935 9.34961C117.389 9.34961 116.135 10.6032 116.135 12.1496C116.135 13.696 117.389 14.9496 118.935 14.9496Z" fill="#EAEEF9"/>
<path d="M16.9852 10.4C19.857 10.4 22.1852 8.07189 22.1852 5.2C22.1852 2.32812 19.857 0 16.9852 0C14.1133 0 11.7852 2.32812 11.7852 5.2C11.7852 8.07189 14.1133 10.4 16.9852 10.4Z" fill="#EAEEF9"/>
<path d="M77.6331 24.6256H52.1382V14.9502H85.558C85.6194 14.9502 85.6808 14.9502 85.7423 14.9502C90.9641 15.0734 95.203 19.3873 95.203 24.6256H84.145" fill="#CCD4E2"/>
<g filter="url(#filter0_d_1253_9879)">
<path d="M86.4799 14.9502C84.514 15.0734 82.671 15.8746 81.3809 17.2304C81.258 17.3536 81.1352 17.4769 81.0123 17.6618C79.8451 19.0176 78.985 20.8048 78.985 22.7152V80.2748C78.985 85.6363 74.6847 89.9502 69.3399 89.9502H22.4048V22.2838C22.5277 20.3117 23.2649 18.5246 24.555 17.2304C25.9679 15.813 27.8724 14.9502 30.0225 14.9502H77.2649H86.2341C86.2956 14.9502 86.357 14.9502 86.4799 14.9502Z" fill="url(#paint0_linear_1253_9879)"/>
</g>
<path d="M69.6467 28.1379H55.7013C55.2098 28.1379 54.7798 27.7065 54.7798 27.2135C54.7798 26.7205 55.2098 26.2891 55.7013 26.2891H69.6467C70.1382 26.2891 70.5682 26.7205 70.5682 27.2135C70.5682 27.7065 70.1996 28.1379 69.6467 28.1379Z" fill="#B3BFD3"/>
<path d="M49.1283 28.1379H30.944C30.4525 28.1379 30.0225 27.7065 30.0225 27.2135C30.0225 26.7205 30.4525 26.2891 30.944 26.2891H49.1897C49.6812 26.2891 50.1112 26.7205 50.1112 27.2135C50.1112 27.7065 49.6812 28.1379 49.1283 28.1379Z" fill="#B3BFD3"/>
<path d="M60.8002 37.259H42.6774C42.1859 37.259 41.7559 36.8276 41.7559 36.3346C41.7559 35.8415 42.1859 35.4102 42.6774 35.4102H60.8002C61.2917 35.4102 61.7217 35.8415 61.7217 36.3346C61.7832 36.8276 61.3531 37.259 60.8002 37.259Z" fill="#B3BFD3"/>
<path d="M36.8416 37.259H30.944C30.4525 37.259 30.0225 36.8276 30.0225 36.3346C30.0225 35.8415 30.4525 35.4102 30.944 35.4102H36.8416C37.333 35.4102 37.7631 35.8415 37.7631 36.3346C37.7631 36.8276 37.333 37.259 36.8416 37.259Z" fill="#D4DBEC"/>
<path d="M69.6469 46.3801H58.5275C58.036 46.3801 57.606 45.9487 57.606 45.4557C57.606 44.9626 58.036 44.5312 58.5275 44.5312H69.6469C70.1384 44.5312 70.5684 44.9626 70.5684 45.4557C70.5684 45.9487 70.1998 46.3801 69.6469 46.3801Z" fill="#D4DBEC"/>
<path d="M53.1829 46.3801H30.944C30.4525 46.3801 30.0225 45.9487 30.0225 45.4557C30.0225 44.9626 30.4525 44.5312 30.944 44.5312H53.1829C53.6743 44.5312 54.1044 44.9626 54.1044 45.4557C54.1044 45.9487 53.7358 46.3801 53.1829 46.3801Z" fill="#B3BFD3"/>
<path d="M60.8006 55.5012H48.5753C48.0838 55.5012 47.6538 55.0698 47.6538 54.5768C47.6538 54.0837 48.0838 53.6523 48.5753 53.6523H60.8006C61.292 53.6523 61.7221 54.0837 61.7221 54.5768C61.7835 55.0698 61.3535 55.5012 60.8006 55.5012Z" fill="#B3BFD3"/>
<path d="M43.2307 55.5012H30.944C30.4525 55.5012 30.0225 55.0698 30.0225 54.5768C30.0225 54.0837 30.4525 53.6523 30.944 53.6523H43.2921C43.7836 53.6523 44.2136 54.0837 44.2136 54.5768C44.2136 55.0698 43.7836 55.5012 43.2307 55.5012Z" fill="#D4DBEC"/>
<path d="M69.6468 64.6213H61.1075C60.6161 64.6213 60.186 64.1899 60.186 63.6969C60.186 63.2039 60.6161 62.7725 61.1075 62.7725H69.6468C70.1382 62.7725 70.5683 63.2039 70.5683 63.6969C70.5683 64.1899 70.1997 64.6213 69.6468 64.6213Z" fill="#B3BFD3"/>
<path d="M55.5788 64.6213H41.2648C40.7733 64.6213 40.3433 64.1899 40.3433 63.6969C40.3433 63.2039 40.7733 62.7725 41.2648 62.7725H55.5788C56.0702 62.7725 56.5003 63.2039 56.5003 63.6969C56.5003 64.1899 56.0702 64.6213 55.5788 64.6213Z" fill="#D4DBEC"/>
<path d="M35.9201 64.6213H30.944C30.4525 64.6213 30.0225 64.1899 30.0225 63.6969C30.0225 63.2039 30.4525 62.7725 30.944 62.7725H35.9201C36.4115 62.7725 36.8416 63.2039 36.8416 63.6969C36.8416 64.1899 36.4115 64.6213 35.9201 64.6213Z" fill="#B3BFD3"/>
<path d="M60.8007 73.7424H52.3229C51.8314 73.7424 51.4014 73.311 51.4014 72.818C51.4014 72.3249 51.8314 71.8936 52.3229 71.8936H60.8007C61.2921 71.8936 61.7222 72.3249 61.7222 72.818C61.7836 73.311 61.3536 73.7424 60.8007 73.7424Z" fill="#B3BFD3"/>
<path d="M46.7324 73.7424H30.944C30.4525 73.7424 30.0225 73.311 30.0225 72.818C30.0225 72.3249 30.4525 71.8936 30.944 71.8936H46.7324C47.2238 71.8936 47.6539 72.3249 47.6539 72.818C47.6539 73.311 47.2238 73.7424 46.7324 73.7424Z" fill="#D4DBEC"/>
<path d="M48.6981 82.3086H61.1077C61.1077 84.4039 61.9677 86.3144 63.3193 87.6701C64.6708 89.0876 66.5752 89.8887 68.664 89.8887H12.821C10.7322 89.8887 8.82779 89.0259 7.47625 87.6701C6.12472 86.3144 5.26465 84.4039 5.26465 82.3086H42.0019C42.0019 82.3086 48.821 82.3702 48.6981 82.3086Z" fill="#CCD4E2"/>
<path d="M101.973 76.4057L94.2163 68.6552L95.9945 66.877L103.745 74.6336L101.973 76.4057Z" fill="#858B9B"/>
<path d="M104.669 79.1328L98.7216 73.185C98.225 72.6883 98.225 71.8789 98.7216 71.3823C99.2183 70.8856 100.028 70.8856 100.524 71.3823L106.472 77.3301C106.969 77.8267 106.969 78.6361 106.472 79.1328C105.975 79.6295 105.166 79.6295 104.669 79.1328Z" fill="#858B9B"/>
<path d="M104.246 79.5129L96.5938 71.8604C96.416 71.6826 96.416 71.3944 96.5938 71.2105L98.5498 69.2545C98.7277 69.0766 99.0159 69.0766 99.1998 69.2545L106.852 76.9069C107.03 77.0847 107.03 77.3729 106.852 77.5568L104.896 79.5129C104.712 79.6907 104.424 79.6907 104.246 79.5129Z" fill="url(#paint1_linear_1253_9879)"/>
<path d="M85.4356 43.6807C77.3171 43.6807 70.7378 50.26 70.7378 58.3784C70.7378 66.4907 77.3171 73.0762 85.4294 73.0762C93.5479 73.0762 100.127 66.4969 100.127 58.3784C100.127 50.26 93.5479 43.6807 85.4356 43.6807ZM85.4356 70.3537C78.9175 70.3537 73.6381 64.9885 73.6381 58.3723C73.6381 51.7562 78.9175 46.397 85.4356 46.397C91.9536 46.397 97.233 51.7623 97.233 58.3784C97.233 64.9946 91.9475 70.3537 85.4356 70.3537Z" fill="url(#paint2_linear_1253_9879)"/>
<defs>
<filter id="filter0_d_1253_9879" x="0.404785" y="3.9502" width="108.075" height="119" filterUnits="userSpaceOnUse" color-interpolation-filters="sRGB">
<feFlood flood-opacity="0" result="BackgroundImageFix"/>
<feColorMatrix in="SourceAlpha" type="matrix" values="0 0 0 0 0 0 0 0 0 0 0 0 0 0 0 0 0 0 127 0" result="hardAlpha"/>
<feOffset dy="11"/>
<feGaussianBlur stdDeviation="11"/>
<feColorMatrix type="matrix" values="0 0 0 0 0.397708 0 0 0 0 0.47749 0 0 0 0 0.575 0 0 0 0.27 0"/>
<feBlend mode="normal" in2="BackgroundImageFix" result="effect1_dropShadow_1253_9879"/>
<feBlend mode="normal" in="SourceGraphic" in2="effect1_dropShadow_1253_9879" result="shape"/>
</filter>
<linearGradient id="paint0_linear_1253_9879" x1="54.4214" y1="13.2154" x2="54.4214" y2="90.7587" gradientUnits="userSpaceOnUse">
<stop stop-color="#FDFEFF"/>
<stop offset="0.9964" stop-color="#ECF0F5"/>
</linearGradient>
<linearGradient id="paint1_linear_1253_9879" x1="96.4556" y1="74.3848" x2="106.987" y2="74.3848" gradientUnits="userSpaceOnUse">
<stop stop-color="#B0BACC"/>
<stop offset="1" stop-color="#969EAE"/>
</linearGradient>
<linearGradient id="paint2_linear_1253_9879" x1="70.7243" y1="58.3816" x2="100.133" y2="58.3816" gradientUnits="userSpaceOnUse">
<stop stop-color="#B0BACC"/>
<stop offset="1" stop-color="#969EAE"/>
</linearGradient>
</defs>
</svg>
